<?xml version="1.0" encoding="UTF-8"?>
<!DOCTYPE svg PUBLIC "-//W3C//DTD SVG 1.1//EN" "http://www.w3.org/Graphics/SVG/1.1/DTD/svg11.dtd">
<!-- Creator: CorelDRAW -->
<svg xmlns="http://www.w3.org/2000/svg" xml:space="preserve" width="50mm" height="50mm" version="1.1" style="shape-rendering:geometricPrecision; text-rendering:geometricPrecision; image-rendering:optimizeQuality; fill-rule:evenodd; clip-rule:evenodd"
viewBox="0 0 5000 5000"
 xmlns:xlink="http://www.w3.org/1999/xlink"
 xmlns:xodm="http://www.corel.com/coreldraw/odm/2003">
 <defs>
  <style type="text/css">
   <![CDATA[
    .fil0 {fill:blue}
   ]]>
  </style>
 </defs>
 <g id="Camada_x0020_1">
  <metadata id="CorelCorpID_0Corel-Layer"/>
  <path class="fil0" d="M2493.87 56.13c1353.1,0 2450,1096.9 2450,2450 0,355.51 -69.66,679.64 -205.85,984.52 -65.63,78.4 -184.67,218.53 -439.94,228.53l-279.23 0 -1933.95 0 -0.03 0.07 -525.05 0c-247.61,0 -419.8,-58.93 -515.61,-176.7 -96,-118.02 -110.15,-288.71 -43.58,-511.55l263.61 -882.4c64.55,-216.1 176.35,-384.09 336,-503.12 159.63,-119.02 351.56,-178.4 576.66,-178.4l536.17 0 -158.09 484.6 -526.2 0c-114.27,0 -269.59,88.53 -269.59,207.76l0 0.01c0,119.21 31.66,207.75 145.93,207.75l514.3 0 -145.1 444.76 -522.82 0c-114.27,0 -269.59,88.54 -269.59,207.76l0 0.01c0,119.23 31.74,207.76 145.91,207.76l638.43 0 459.52 -1414.53 378.54 8.18 -265.47 735.01 807.68 -735.01 490.42 0 20.22 63.66 -1562.55 1342.89 1556.89 -0.03c104.93,-3.39 133.47,-35.33 209.31,-161.53l0.24 0.28c53.03,-177.28 81.44,-365.27 81.44,-560.28 0,-1076.2 -872.42,-1948.62 -1948.62,-1948.62 -1076.2,0 -1948.62,872.42 -1948.62,1948.62 0,1076.2 872.42,1948.62 1948.62,1948.62 302.19,0 588.33,-68.77 843.57,-191.58l188.49 465.42c-313.68,145.92 -663.32,227.54 -1032.06,227.54 -1353.1,0 -2450,-1096.9 -2450,-2450 0,-1353.1 1096.9,-2450 2450,-2450z"/>
 </g>
</svg>
